<svg xmlns="http://www.w3.org/2000/svg" width="30.006" height="30" viewBox="0 0 30.006 30">
  <g id="Agrupar_6" data-name="Agrupar 6" transform="translate(-63.994 -830)">
    <g id="give-money" transform="translate(63.994 832)">
      <g id="Layer_5_58_">
        <g id="Agrupar_4" data-name="Agrupar 4">
          <g id="Agrupar_2" data-name="Agrupar 2" transform="translate(14.14)">
            <path id="Caminho_38" data-name="Caminho 38" d="M239.072,70.138c-.9-.359-1.155-.577-1.155-.969,0-.314.238-.681.908-.681a2.522,2.522,0,0,1,1.052.236.331.331,0,0,0,.155.039.312.312,0,0,0,.292-.2l.163-.417a.258.258,0,0,0-.139-.331,6.3,6.3,0,0,0-1.086-.283.056.056,0,0,1-.051-.057v-.6a.335.335,0,0,0-.338-.33h-.292a.335.335,0,0,0-.338.33v.635c0,.049-.053.07-.072.074a1.754,1.754,0,0,0-1.464,1.707c0,1.038.858,1.507,1.784,1.859.74.291,1.042.585,1.042,1.018,0,.47-.428.8-1.041.8a3.669,3.669,0,0,1-1.239-.335.331.331,0,0,0-.143-.032.316.316,0,0,0-.3.208l-.156.421a.274.274,0,0,0,.139.342,5.515,5.515,0,0,0,1.314.365.073.073,0,0,1,.061.066v.632a.335.335,0,0,0,.339.33h.3a.335.335,0,0,0,.339-.33v-.666a.063.063,0,0,1,.055-.07,1.835,1.835,0,0,0,1.551-1.8C240.753,71.189,240.25,70.6,239.072,70.138Z" transform="translate(-230.761 -62.817)" fill="#2e76c0"/>
            <path id="Caminho_39" data-name="Caminho 39" d="M175.094,22.509a7.933,7.933,0,1,0,7.933,7.933,7.933,7.933,0,0,0-7.933-7.933Zm0,14.027a6.094,6.094,0,1,1,6.094-6.094A6.094,6.094,0,0,1,175.094,36.536Z" transform="translate(-167.161 -22.509)" fill="#2e76c0"/>
          </g>
          <g id="Agrupar_3" data-name="Agrupar 3" transform="translate(0 16.627)">
            <path id="Caminho_40" data-name="Caminho 40" d="M117.655,222.207a20.185,20.185,0,0,1-6.321,2.155c-2.059.323-5.931-.456-5.931-1.375,0-.348,3.4.859,5.451.31,1.576-.42,1.352-1.894.5-2.089s-5.843-2.022-7.976-2.085a36.866,36.866,0,0,0-4.684.545c-.411.067-.669.06-.694.453-.119,1.828-.355,5.566-.483,7.519,0,.041.055.6.512.206a2.377,2.377,0,0,1,1.854-.754c1.02.231,9.844,1.848,11.061,1.565a30.722,30.722,0,0,0,7.616-4.234C120.021,223.016,118.882,221.53,117.655,222.207Z" transform="translate(-89.261 -219.123)" fill="#2e76c0"/>
            <path id="Caminho_41" data-name="Caminho 41" d="M6.293,222.265l-4.623-.228a.832.832,0,0,0-.81.6l-.841,7.632a.5.5,0,0,0,.488.655H5.631a.682.682,0,0,0,.7-.623l.563-7.353a.631.631,0,0,0-.6-.683Zm-2.722,7.644a1.278,1.278,0,1,1,1.278-1.278,1.278,1.278,0,0,1-1.278,1.278Z" transform="translate(0.006 -221.792)" fill="#2e76c0"/>
          </g>
        </g>
      </g>
    </g>
    <rect id="Retângulo_24" data-name="Retângulo 24" width="30" height="30" transform="translate(63.994 830)" fill="none"/>
  </g>
</svg>
