<svg xmlns="http://www.w3.org/2000/svg" width="20" height="18" viewBox="0 0 20 18">
  <path id="coins" d="M20,9c-.033-.57-.711-1.016-2.068-1.356A.752.752,0,0,0,18,7.332V5h-.006C17.875,3.057,9.914,3,9,3S.125,3.057.006,5H0v.043H0v2.29c0,.633.819,1.129,2.035,1.5A.731.731,0,0,0,2,9H2v.043H2v2.286c-1.31.337-1.964.777-2,1.338H0v.043H0V15c0,.441.4.815,1.049,1.127A.741.741,0,0,0,1,16.333H1v.043H1v2.29c0,1.109,2.5,1.8,5.273,2.118a.306.306,0,0,0,.061.012c.006,0,.012,0,.018,0,.535.06,1.078.107,1.616.141A.275.275,0,0,0,8,20.941c.006,0,.011,0,.017,0C8.7,20.979,9.372,21,10,21s1.3-.021,1.983-.063c.006,0,.011,0,.017,0s.022-.006.033-.007c.538-.034,1.081-.08,1.616-.141.006,0,.012,0,.018,0a.306.306,0,0,0,.061-.012C16.5,20.463,19,19.774,19,18.665V16.333h-.005c-.023-.409-.372-.75-1.06-1.035A.745.745,0,0,0,18,15V12.82c1.2-.368,2-.86,2-1.488V9ZM2.333,8.225V6.614c.311.084.646.161,1,.23V8.472L3.21,8.446c-.177-.039-.35-.08-.516-.123C2.568,8.291,2.449,8.258,2.333,8.225Zm14.924-.731-.009,0-.121.094a3.242,3.242,0,0,1-.793.41V6.41a4.961,4.961,0,0,0,1-.459V7.331A.262.262,0,0,1,17.257,7.494Zm-8.865,7.5.275,0v1.666l-.194,0-.087,0q-.229,0-.456-.011l-.056,0q-.273-.009-.541-.022V14.962q.5.024,1.005.032Zm1.27,0q.5-.01,1.005-.032v1.664l-.215.01q-.3.012-.609.02l-.147,0c-.119,0-.241,0-.362,0V15l.275,0Zm1.894,1.576-.222.017V14.924c.338-.022.672-.049,1-.081V16.5c-.206.022-.417.042-.633.06ZM13,14.771q.515-.062,1-.141v1.637q-.471.083-1,.153ZM5.84,16.516l-.1-.01L5.667,16.5V14.843c.328.032.662.059,1,.081v1.661C6.387,16.565,6.11,16.542,5.84,16.516ZM5,14.771v1.649q-.529-.069-1-.153V14.63Q4.484,14.708,5,14.771Zm9.667,1.367V14.511c.354-.07.689-.146,1-.23v1.61C15.37,15.977,15.035,16.06,14.667,16.138ZM8.392,7.328l.275,0V9c-.449,0-.895-.016-1.333-.038V7.295q.5.023,1.005.032Zm1.27,0q.5-.009,1.005-.032V8.958l-.168.009h-.014c-.224.01-.452.017-.683.023l-.108,0c-.119,0-.24,0-.36,0V7.332l.275,0Zm2,4q.5-.01,1.005-.032v1.663c-.438.022-.883.034-1.333.038V11.332l.275,0ZM8.449,12.9q-.32-.025-.625-.055l-.131-.013-.027,0V11.176c.328.032.662.059,1,.081v1.661l-.083-.005Zm-2.067-.239C6.25,12.643,6.126,12.62,6,12.6V10.964q.484.078,1,.141v1.649c-.2-.027-.4-.055-.6-.085Zm4.01-1.336.275,0V13c-.162,0-.326,0-.484-.006h-.074c-.251-.006-.5-.016-.736-.028l-.039,0V11.295q.5.024,1.005.032Zm3.356,1.559-.036,0c-.124.01-.253.017-.379.026V11.257c.338-.022.672-.049,1-.081v1.654C14.14,12.85,13.946,12.87,13.747,12.887ZM5.667,8.83V7.176c.328.032.662.059,1,.081V8.916C6.327,8.892,5.993,8.864,5.667,8.83Zm6.667,0q-.483.051-1,.088V7.257c.338-.022.672-.049,1-.081ZM13,7.1q.515-.062,1-.141V8.6c-.316.056-.649.107-1,.153Zm1.667,1.365V6.845c.354-.07.689-.146,1-.23V8.221C15.368,8.308,15.032,8.391,14.667,8.469ZM5,7.1V8.751l-.2-.025-.125-.018q-.289-.041-.566-.088L4,8.6V6.964Q4.484,7.042,5,7.1Zm.333,3.74v1.624q-.553-.119-1-.25v-1.6C4.645,10.7,4.979,10.775,5.333,10.844Zm10.636,1.761c-.146.025-.294.05-.446.073l-.265.039c-.084.012-.172.022-.258.033V11.1q.515-.062,1-.141V12.6Zm-12.3-2.2v1.584a2.08,2.08,0,0,1-.972-.593l-.022-.037a.211.211,0,0,1-.006-.032V9.952A4.961,4.961,0,0,0,3.667,10.41Zm-.333,4.1v1.627q-.459-.1-.845-.2L2.366,15.9l-.032-.009v-1.61C2.645,14.365,2.979,14.442,3.333,14.511Zm1,3.667V19.8c-.369-.078-.7-.161-1-.247v-1.61C3.645,18.031,3.979,18.108,4.333,18.178ZM5,18.3q.484.079,1,.141v1.649q-.528-.069-1-.153Zm1.667.212c.328.032.662.059,1,.081v1.662q-.519-.037-1-.088Zm1.667.119q.5.024,1.005.032h.053l.275,0v1.666q-.691-.007-1.333-.039V18.628Zm2,.037.275,0h.053q.5-.01,1.005-.032v1.664q-.642.032-1.333.039Zm2-.074c.338-.022.672-.049,1-.081v1.655q-.48.051-1,.088ZM14,18.437q.515-.062,1-.141v1.637q-.471.083-1,.153Zm1.667-.26c.354-.07.689-.146,1-.23v1.61c-.3.086-.631.169-1,.247ZM17.3,15.107l-.114.1a2.982,2.982,0,0,1-.85.46V14.077a4.961,4.961,0,0,0,1-.459V15A.212.212,0,0,1,17.3,15.107Zm.224-2.842c-.166.046-.342.09-.521.132l-.254.057-.079.016V10.845c.354-.07.689-.146,1-.23v1.61ZM.667,7.332V5.952a4.96,4.96,0,0,0,1,.459v1.6C1.018,7.763.667,7.52.667,7.332ZM.667,15v-1.38a4.961,4.961,0,0,0,1,.459v1.59l-.19-.074,0,0C.949,15.38.667,15.167.667,15Zm1,3.667v-1.38a4.96,4.96,0,0,0,1,.459v1.6C2.018,19.1,1.667,18.853,1.667,18.665Zm15.667.674v-1.6a4.961,4.961,0,0,0,1-.459v1.379C18.333,18.852,17.982,19.1,17.333,19.34Zm1-7.333v-1.6a4.961,4.961,0,0,0,1-.459v1.379C19.333,11.519,18.982,11.763,18.333,12.006Z" transform="translate(0 -3)" fill="#fff"/>
</svg>
