<svg xmlns="http://www.w3.org/2000/svg" width="30.006" height="30" viewBox="0 0 30.006 30">
  <g id="comparacao-icon" transform="translate(-63.994 -830)">
    <rect id="Ret창ngulo_24" data-name="Ret창ngulo 24" width="30" height="30" transform="translate(64 830)" fill="none"/>
    <g id="Grupo_51" data-name="Grupo 51" transform="translate(-6172.006 953)">
      <g id="comparacao" transform="translate(6236 -128.309)">
        <g id="Grupo_50" data-name="Grupo 50" transform="translate(0 7.309)">
          <path id="Caminho_6" data-name="Caminho 6" d="M96.1,39.853v-21.6a1.2,1.2,0,0,0-1.2-1.2h-6a1.2,1.2,0,0,0-1.2,1.2v21.6a1.2,1.2,0,0,0,1.2,1.2h6A1.2,1.2,0,0,0,96.1,39.853Z" transform="translate(-66.101 -14.653)" fill="#fff"/>
          <path id="Caminho_7" data-name="Caminho 7" d="M42.614,33.709h6.6a1.2,1.2,0,0,0,1.2-1.2v-24a1.2,1.2,0,0,0-1.2-1.2h-6.6a1.2,1.2,0,0,0-1.2,1.2v24A1.2,1.2,0,0,0,42.614,33.709Z" transform="translate(-31.214 -7.309)" fill="#fff"/>
          <path id="Caminho_8" data-name="Caminho 8" d="M1.2,46.286a1.2,1.2,0,0,0-1.2,1.2v14.4a1.2,1.2,0,0,0,1.2,1.2h6a1.2,1.2,0,0,0,1.2-1.2v-14.4a1.2,1.2,0,0,0-1.2-1.2Z" transform="translate(0 -36.686)" fill="#fff"/>
        </g>
      </g>
      <rect id="Ret창ngulo_93" data-name="Ret창ngulo 93" width="30" height="30" transform="translate(6236 -123)" fill="none"/>
    </g>
  </g>
</svg>
