<svg xmlns="http://www.w3.org/2000/svg" width="20" height="10.714" viewBox="0 0 20 10.714">
  <g id="money" transform="translate(0)">
    <path id="Path_20" data-name="Path 20" d="M33.429,104.714a.714.714,0,1,1-.714-.714A.714.714,0,0,1,33.429,104.714Zm0,0" transform="translate(-30.571 -99.357)" fill="#fff"/>
    <path id="Path_21" data-name="Path 21" d="M132.286,24a4.286,4.286,0,1,0,4.286,4.286A4.286,4.286,0,0,0,132.286,24Zm0,3.929a1.786,1.786,0,0,1,.357,3.536v.75h-.714v-.75a1.789,1.789,0,0,1-1.429-1.75h.714a1.071,1.071,0,1,0,1.071-1.071,1.786,1.786,0,0,1-.357-3.536v-.75h.714v.75a1.789,1.789,0,0,1,1.429,1.75h-.714a1.071,1.071,0,1,0-1.071,1.071Zm0,0" transform="translate(-122.286 -22.929)" fill="#fff"/>
    <path id="Path_22" data-name="Path 22" d="M18.244,0H1.756A2.149,2.149,0,0,1,0,1.756v7.2a2.149,2.149,0,0,1,1.756,1.756H18.244A2.149,2.149,0,0,1,20,8.958v-7.2A2.149,2.149,0,0,1,18.244,0ZM2.143,6.786A1.429,1.429,0,1,1,3.572,5.357,1.429,1.429,0,0,1,2.143,6.786ZM10,10.357a5,5,0,1,1,5-5A5,5,0,0,1,10,10.357Zm7.857-3.571a1.429,1.429,0,1,1,1.429-1.429A1.429,1.429,0,0,1,17.857,6.786Zm0,0" fill="#fff"/>
    <path id="Path_23" data-name="Path 23" d="M385.429,104.714a.714.714,0,1,1-.714-.714A.714.714,0,0,1,385.429,104.714Zm0,0" transform="translate(-366.857 -99.357)" fill="#fff"/>
  </g>
</svg>
