<svg id="ic_content_paste_24px" xmlns="http://www.w3.org/2000/svg" width="30" height="30" viewBox="0 0 30 30">
  <path id="Caminho_43" data-name="Caminho 43" d="M24.333,2.545H18.76a4.05,4.05,0,0,0-7.52,0H5.667A2.616,2.616,0,0,0,3,5.091V25.455A2.616,2.616,0,0,0,5.667,28H24.333A2.616,2.616,0,0,0,27,25.455V5.091A2.616,2.616,0,0,0,24.333,2.545ZM15,2.545a1.308,1.308,0,0,1,1.333,1.273,1.335,1.335,0,0,1-2.667,0A1.308,1.308,0,0,1,15,2.545Zm9.333,22.909H5.667V5.091H8.333V8.909H21.667V5.091h2.667Z" fill="#fff"/>
  <path id="Caminho_44" data-name="Caminho 44" d="M0,0H30V30H0Z" fill="none"/>
</svg>
