<svg id="paste_money" xmlns="http://www.w3.org/2000/svg" width="30" height="30" viewBox="0 0 30 30">
  <g id="Agrupar_1" data-name="Agrupar 1" transform="translate(3.75)">
    <path id="Caminho_35" data-name="Caminho 35" d="M5.5,5H8V8.75H20.5V5H23V9.25h2.5V5A2.507,2.507,0,0,0,23,2.5H17.75a3.7,3.7,0,0,0-7,0H5.5A2.507,2.507,0,0,0,3,5V25a2.507,2.507,0,0,0,2.5,2.5h9.75V25H5.5Zm8.75-2.5A1.344,1.344,0,0,1,15.5,3.75,1.344,1.344,0,0,1,14.25,5,1.344,1.344,0,0,1,13,3.75,1.344,1.344,0,0,1,14.25,2.5Z" transform="translate(-3)" fill="#fff"/>
    <path id="Caminho_36" data-name="Caminho 36" d="M24.55,18.025a7.9,7.9,0,0,0-3.125-1.75c-.75-.25-1.25-.5-1.625-.625a5.435,5.435,0,0,1-.875-.5.752.752,0,0,1-.125-.5.687.687,0,0,1,.375-.625,2.5,2.5,0,0,1,1.125-.25,9.885,9.885,0,0,1,3.875,1l1.25-2.875a12.444,12.444,0,0,0-4.125-1V9.4H19.175v1.375a5.553,5.553,0,0,0-3.25,1.125A3.229,3.229,0,0,0,14.8,14.525a4.174,4.174,0,0,0,.375,1.875A3.907,3.907,0,0,0,16.3,17.775,10.9,10.9,0,0,0,18.425,18.9a14.55,14.55,0,0,1,1.875.75l1,.5c.25.125.25.375.25.625a.756.756,0,0,1-.375.75,3.137,3.137,0,0,1-1.25.25,10.1,10.1,0,0,1-2.5-.375,16.329,16.329,0,0,1-2.625-1v3.375a10.656,10.656,0,0,0,4.375,1V26.65H21.3v-2a5.2,5.2,0,0,0,3.25-1.375,3.675,3.675,0,0,0,1.125-2.75A4.217,4.217,0,0,0,24.55,18.025Z" transform="translate(-0.05 2.35)" fill="#fff"/>
  </g>
  <path id="Caminho_37" data-name="Caminho 37" d="M0,0H30V30H0Z" fill="none"/>
</svg>
