<svg xmlns="http://www.w3.org/2000/svg" width="17.912" height="30" viewBox="0 0 17.912 30">
  <path id="plant-money" d="M8.741,30a1.416,1.416,0,0,1-1.415-1.415V23.927a9.04,9.04,0,0,1-3.5-1.327C.921,20.708.009,16.749,0,16.709l.023,0c.036,0,.122-.005.246-.005a11.475,11.475,0,0,1,6.306,2.119c.266.185.519.377.751.571V14.009a7.076,7.076,0,1,1,2.83,0v3.682a8.747,8.747,0,0,1,1.339-1.982c2.324-2.575,6.376-2.856,6.417-2.858A11.128,11.128,0,0,1,14.8,19.013a7.932,7.932,0,0,1-4.643,2.572v7A1.416,1.416,0,0,1,8.741,30ZM6.265,7.164h0a1.831,1.831,0,0,0,.653,1.3,2.661,2.661,0,0,0,1.525.58v.738h.342v-.72h.009a2.771,2.771,0,0,0,1.224-.248,1.788,1.788,0,0,0,.756-.657,1.68,1.68,0,0,0,.252-.9,1.581,1.581,0,0,0-.283-.977,1.832,1.832,0,0,0-.689-.562A8.542,8.542,0,0,0,9.01,5.337l-.225-.072V3.555a.912.912,0,0,1,.509.274.95.95,0,0,1,.239.509H10.9a1.806,1.806,0,0,0-.625-1.229,2.465,2.465,0,0,0-1.49-.544V1.8H8.443v.756a2.945,2.945,0,0,0-1.129.225,1.84,1.84,0,0,0-.783.612,1.556,1.556,0,0,0-.283.927,1.6,1.6,0,0,0,.283.986,1.8,1.8,0,0,0,.684.558,7.8,7.8,0,0,0,1.049.374l.18.054V8.055a1,1,0,0,1-.576-.319,1.027,1.027,0,0,1-.252-.571H6.265Zm2.52.927h0V6.408a1.934,1.934,0,0,1,.653.346.682.682,0,0,1,.229.536.753.753,0,0,1-.234.571.944.944,0,0,1-.647.229ZM8.443,5.148h0a1.871,1.871,0,0,1-.62-.355.692.692,0,0,1-.216-.527.665.665,0,0,1,.22-.531.992.992,0,0,1,.616-.207V5.147Z" transform="translate(0)" fill="#fff"/>
</svg>
