<svg xmlns="http://www.w3.org/2000/svg" width="20" height="20" viewBox="0 0 20 20">
  <path id="porcentagem" d="M10,20A10,10,0,1,1,20,10,10.011,10.011,0,0,1,10,20Zm2.76-9.068a2.115,2.115,0,0,0-1.5.54,2.027,2.027,0,0,0-.576,1.548,2.045,2.045,0,0,0,.576,1.553,2.1,2.1,0,0,0,1.5.546,2.1,2.1,0,0,0,1.5-.546,2.045,2.045,0,0,0,.576-1.553,2.027,2.027,0,0,0-.576-1.548A2.111,2.111,0,0,0,12.76,10.932ZM11.152,6.48,6.6,15H8.86l4.549-8.52ZM7.264,6.36a2.122,2.122,0,0,0-1.506.545A2.038,2.038,0,0,0,5.176,8.46,2,2,0,0,0,5.758,10a2.135,2.135,0,0,0,1.506.54A2.092,2.092,0,0,0,8.758,10a2.024,2.024,0,0,0,.57-1.536,2.049,2.049,0,0,0-.576-1.554A2.083,2.083,0,0,0,7.264,6.36Zm5.484,7.38a.458.458,0,0,1-.39-.186.891.891,0,0,1-.138-.534.864.864,0,0,1,.138-.522.458.458,0,0,1,.39-.186.473.473,0,0,1,.4.186.835.835,0,0,1,.144.522.86.86,0,0,1-.144.534A.473.473,0,0,1,12.748,13.74ZM7.24,9.156a.453.453,0,0,1-.378-.18.838.838,0,0,1-.138-.516.887.887,0,0,1,.138-.534A.449.449,0,0,1,7.24,7.74a.492.492,0,0,1,.4.186.833.833,0,0,1,.15.534.8.8,0,0,1-.15.51A.493.493,0,0,1,7.24,9.156Z" fill="#fff"/>
</svg>
