<svg xmlns="http://www.w3.org/2000/svg" width="17.5" height="20" viewBox="0 0 17.5 20">
  <g id="producao" transform="translate(247 -399)">
    <g id="wheat" transform="translate(-246.205 409) rotate(-45)">
      <path id="Path_33" data-name="Path 33" d="M.19,2.025q.1,0,.191,0a3.831,3.831,0,0,1,1.212.2A3.142,3.142,0,0,0,2.215.33.33.33,0,0,0,1.885,0,3.149,3.149,0,0,0,0,.624a3.832,3.832,0,0,1,.195,1.21q0,.1,0,.19Zm0,0" transform="translate(8.535 0.501)" fill="#fff"/>
      <path id="Path_34" data-name="Path 34" d="M3.213.241Q3.1.124,2.992,0L.1,2.9a.33.33,0,1,0,.466.466l2.9-2.9Q3.333.36,3.215.243l0,0Zm0,0" transform="translate(0 7.792)" fill="#fff"/>
      <path id="Path_35" data-name="Path 35" d="M1.115,2.989a3.843,3.843,0,0,1,.084.575l.824-.824a3.209,3.209,0,0,0,.026-.4A3.145,3.145,0,0,0,1.122.1.33.33,0,0,0,.656.1,3.166,3.166,0,0,0,0,1.049a.991.991,0,0,1,.09.08A3.81,3.81,0,0,1,1.115,2.989Zm0,0" transform="translate(6.021)" fill="#fff"/>
      <path id="Path_36" data-name="Path 36" d="M3.465.927A3.145,3.145,0,0,0,1.227,0a3.2,3.2,0,0,0-.4.026L0,.848A3.8,3.8,0,0,1,2.434,1.959a1.008,1.008,0,0,1,.08.09A3.162,3.162,0,0,0,3.461,1.4a.329.329,0,0,0,0-.471Zm0,0" transform="translate(7.688 3.18)" fill="#fff"/>
      <path id="Path_37" data-name="Path 37" d="M1.2,3.562l.82-.82A3.162,3.162,0,0,0,1.121.1.33.33,0,0,0,.654.1,3.148,3.148,0,0,0,0,1.05a.982.982,0,0,1,.089.079A3.8,3.8,0,0,1,1.2,3.562Zm0,0" transform="translate(4.524 1.498)" fill="#fff"/>
      <path id="Path_38" data-name="Path 38" d="M1.227,0a3.2,3.2,0,0,0-.4.026L0,.848A3.8,3.8,0,0,1,2.434,1.959a1,1,0,0,1,.08.09,3.166,3.166,0,0,0,.952-.656.329.329,0,0,0,0-.466A3.144,3.144,0,0,0,1.227,0Zm0,0" transform="translate(6.19 4.678)" fill="#fff"/>
      <path id="Path_39" data-name="Path 39" d="M2.319,2.335A3.145,3.145,0,0,0,1.392.1.329.329,0,0,0,.926.1,3.17,3.17,0,0,0,.7,4.328L2.293,2.739A3.208,3.208,0,0,0,2.319,2.335Zm0,0" transform="translate(2.756 2.996)" fill="#fff"/>
      <path id="Path_40" data-name="Path 40" d="M1.993,0a3.218,3.218,0,0,0-.4.026L0,1.614a3.142,3.142,0,0,0,1.993.706h0a3.145,3.145,0,0,0,2.238-.927.33.33,0,0,0,0-.466A3.145,3.145,0,0,0,1.993,0Zm0,0" transform="translate(3.926 6.176)" fill="#fff"/>
    </g>
    <g id="Rectangle_59" data-name="Rectangle 59" transform="translate(-247 399)" fill="none" stroke="#fff" stroke-width="2">
      <rect width="17.5" height="20" rx="8.75" stroke="none"/>
      <rect x="1" y="1" width="15.5" height="18" rx="7.75" fill="none"/>
    </g>
  </g>
</svg>
