<svg xmlns="http://www.w3.org/2000/svg" width="20" height="19.798" viewBox="0 0 20 19.798">
  <g id="raining" transform="translate(0 -0.168)">
    <path id="Path_3" data-name="Path 3" d="M39.352,78.118a3.8,3.8,0,0,0-3.793-3.793,3.733,3.733,0,0,0-1.269.218.345.345,0,0,1-.461-.34c0-.074.007-.148.007-.223a3.793,3.793,0,0,0-7.515-.738,3.877,3.877,0,0,0-.071.738,3.606,3.606,0,0,0,.031.491.345.345,0,0,1-.465.369,2.621,2.621,0,0,0-.945-.17,2.767,2.767,0,0,0-2.7,2.211.345.345,0,0,1-.26.266,2.414,2.414,0,0,0,.55,4.764h13.1c.107,0,.21,0,.314-.013a3.814,3.814,0,0,0,3.48-3.781Zm0,0" transform="translate(-19.352 -67.605)" fill="#fff"/>
    <path id="Path_4" data-name="Path 4" d="M100.018,103.6l.035-.024c.029-.021.059-.041.089-.061.06-.04.121-.079.183-.116.034-.019.065-.038.1-.056.069-.038.138-.072.21-.1.026-.012.051-.025.077-.036.1-.042.2-.079.3-.111l.075-.021c.078-.023.157-.045.236-.062l.1-.021c.074-.015.15-.026.226-.034.034,0,.065-.009.1-.012.107-.01.215-.017.323-.017a3.422,3.422,0,0,1,.69.069v-.069c0-.138.008-.273.019-.409,0-.044.011-.086.016-.129.011-.092.023-.183.04-.274.009-.049.019-.1.03-.146q.027-.126.062-.251c.013-.048.027-.1.042-.144.026-.085.057-.169.089-.252.016-.042.031-.084.048-.126q.067-.161.147-.316c.008-.015.014-.031.022-.046.062-.117.13-.231.2-.343.023-.034.049-.069.073-.1.039-.056.075-.113.117-.167a3.145,3.145,0,0,0-.56-.054,3.107,3.107,0,0,0-3.1,3.1,3.207,3.207,0,0,0,.018.333Zm0,0" transform="translate(-96.552 -96.552)" fill="#fff"/>
    <path id="Path_5" data-name="Path 5" d="M180.345,2.237A.345.345,0,0,1,180,1.892V.513a.345.345,0,1,1,.69,0V1.892A.345.345,0,0,1,180.345,2.237Zm0,0" transform="translate(-173.793)" fill="#fff"/>
    <path id="Path_6" data-name="Path 6" d="M110.564,18.4a.345.345,0,0,1-.319-.213l-.527-1.276a.345.345,0,0,1,.637-.264l.528,1.276a.345.345,0,0,1-.318.476Zm0,0" transform="translate(-105.912 -15.711)" fill="#fff"/>
    <path id="Path_7" data-name="Path 7" d="M51.852,59.432a.345.345,0,0,1-.244-.1l-.976-.975a.345.345,0,1,1,.488-.488l.975.975a.345.345,0,0,1-.244.589Zm0,0" transform="translate(-48.785 -55.609)" fill="#fff"/>
    <path id="Path_8" data-name="Path 8" d="M13.758,120.193a.343.343,0,0,1-.132-.026l-1.276-.528a.345.345,0,1,1,.265-.637l1.276.528a.345.345,0,0,1-.132.664Zm0,0" transform="translate(-11.72 -114.71)" fill="#fff"/>
    <path id="Path_9" data-name="Path 9" d="M1.724,190.858H.345a.345.345,0,0,1,0-.69H1.724a.345.345,0,0,1,0,.69Zm0,0" transform="translate(0 -183.448)" fill="#fff"/>
    <path id="Path_10" data-name="Path 10" d="M256.207,457.81a.345.345,0,0,1-.244-.589l.975-.975a.345.345,0,0,1,.488.488l-.975.975A.345.345,0,0,1,256.207,457.81Zm0,0" transform="translate(-247.04 -440.258)" fill="#fff"/>
    <path id="Path_11" data-name="Path 11" d="M196.207,457.573a.345.345,0,0,1-.244-.589l.975-.975a.345.345,0,1,1,.488.488l-.975.975A.345.345,0,0,1,196.207,457.573Zm0,0" transform="translate(-189.109 -440.021)" fill="#fff"/>
    <path id="Path_12" data-name="Path 12" d="M136.207,457.573a.345.345,0,0,1-.244-.589l.975-.975a.345.345,0,1,1,.488.488l-.975.975A.345.345,0,0,1,136.207,457.573Zm0,0" transform="translate(-131.178 -440.021)" fill="#fff"/>
    <path id="Path_13" data-name="Path 13" d="M316.207,457.81a.345.345,0,0,1-.244-.589l.975-.975a.345.345,0,0,1,.488.488l-.975.975A.345.345,0,0,1,316.207,457.81Zm0,0" transform="translate(-304.971 -440.258)" fill="#fff"/>
    <path id="Path_14" data-name="Path 14" d="M376.207,457.81a.345.345,0,0,1-.244-.589l.975-.975a.345.345,0,0,1,.488.488l-.975.975A.345.345,0,0,1,376.207,457.81Zm0,0" transform="translate(-362.902 -440.258)" fill="#fff"/>
    <path id="Path_15" data-name="Path 15" d="M186.207,527.573a.345.345,0,0,1-.244-.589l.975-.975a.345.345,0,1,1,.488.488l-.975.975A.345.345,0,0,1,186.207,527.573Zm0,0" transform="translate(-179.453 -507.607)" fill="#fff"/>
    <path id="Path_16" data-name="Path 16" d="M126.207,527.573a.345.345,0,0,1-.244-.589l.975-.975a.345.345,0,1,1,.488.488l-.975.975A.345.345,0,0,1,126.207,527.573Zm0,0" transform="translate(-121.522 -507.607)" fill="#fff"/>
    <path id="Path_17" data-name="Path 17" d="M66.208,527.573a.345.345,0,0,1-.244-.589l.975-.975a.345.345,0,1,1,.488.488l-.975.975A.345.345,0,0,1,66.208,527.573Zm0,0" transform="translate(-63.592 -507.607)" fill="#fff"/>
    <path id="Path_18" data-name="Path 18" d="M246.207,527.573a.345.345,0,0,1-.244-.589l.975-.975a.345.345,0,1,1,.488.488l-.975.975A.345.345,0,0,1,246.207,527.573Zm0,0" transform="translate(-237.384 -507.607)" fill="#fff"/>
    <path id="Path_19" data-name="Path 19" d="M306.207,527.81a.345.345,0,0,1-.244-.589l.975-.975a.345.345,0,0,1,.488.488l-.975.975A.345.345,0,0,1,306.207,527.81Zm0,0" transform="translate(-295.315 -507.844)" fill="#fff"/>
  </g>
</svg>
