<svg xmlns="http://www.w3.org/2000/svg" width="30" height="30" viewBox="0 0 30 30">
  <g id="Agrupar_5" data-name="Agrupar 5" transform="translate(72 -933)">
    <g id="semaphore-of-three-lights" transform="translate(-90.488 933)">
      <path id="Caminho_42" data-name="Caminho 42" d="M38.109,2.326C38.109,1.041,36.162,0,33.759,0S29.41,1.041,29.41,2.326H27.488V28.54h3.541V30H36.49V28.54h3.541V2.326Zm-4.35,23.56a3.11,3.11,0,1,1,3.11-3.11A3.11,3.11,0,0,1,33.759,25.886Zm0-7.889a3.11,3.11,0,1,1,3.11-3.111A3.111,3.111,0,0,1,33.759,18Zm0-7.662a3.11,3.11,0,1,1,3.11-3.11A3.11,3.11,0,0,1,33.759,10.334Z" fill="#fff"/>
    </g>
    <rect id="Retângulo_23" data-name="Retângulo 23" width="30" height="30" transform="translate(-72 933)" fill="none"/>
  </g>
</svg>
