<svg xmlns="http://www.w3.org/2000/svg" width="26.25" height="20.782" viewBox="0 0 26.25 20.782">
  <g id="_06-speed" data-name="06-speed" transform="translate(-0.001)">
    <g id="Glyph" transform="translate(0.001)">
      <ellipse id="Elipse_23" data-name="Elipse 23" cx="1" cy="1.5" rx="1" ry="1.5" transform="translate(12 12.782)" fill="#fff"/>
      <path id="Caminho_24" data-name="Caminho 24" d="M13.126,0a13.127,13.127,0,0,0-11,20.285,1.094,1.094,0,0,0,.916.5H23.212a1.094,1.094,0,0,0,.916-.5A13.127,13.127,0,0,0,13.126,0Zm2.842,15.86a3.281,3.281,0,1,1-5.683-3.281c.9-1.567,6.123-4.042,6.123-4.042S16.872,14.293,15.967,15.86ZM23.742,17.5H22.547a10.326,10.326,0,0,0,.911-3.281H21.876V12.031h1.583a10.3,10.3,0,0,0-.84-3.124l-1.368.79L20.157,7.8l1.366-.788a10.476,10.476,0,0,0-2.285-2.286l-.788,1.366L16.554,5l.79-1.368a10.3,10.3,0,0,0-3.125-.84V4.375H12.032V2.792a10.3,10.3,0,0,0-3.124.84L9.7,5,7.8,6.094,7.015,4.729A10.476,10.476,0,0,0,4.729,7.014L6.095,7.8,5,9.7l-1.368-.79a10.3,10.3,0,0,0-.84,3.124H4.376v2.188H2.793A10.326,10.326,0,0,0,3.7,17.5H2.509a11.485,11.485,0,1,1,21.233,0Z" transform="translate(-0.001)" fill="#fff"/>
    </g>
  </g>
</svg>
