<svg xmlns="http://www.w3.org/2000/svg" width="18" height="18" viewBox="0 0 18 18">
  <g id="wheat" transform="translate(-0.001 -0.001)">
    <path id="Path_33" data-name="Path 33" d="M388.722,26.029q.152-.007.3-.007a6.13,6.13,0,0,1,1.939.312,5.028,5.028,0,0,0,1-3.017.527.527,0,0,0-.527-.527,5.038,5.038,0,0,0-3.016,1,6.132,6.132,0,0,1,.311,1.936q0,.153-.007.3Zm0,0" transform="translate(-374.763 -21.988)" fill="#fff"/>
    <path id="Path_34" data-name="Path 34" d="M5.141,355q-.187-.187-.353-.386L.155,359.242a.527.527,0,1,0,.746.746l4.633-4.633q-.2-.169-.389-.357l0,0Zm0,0" transform="translate(0 -342.142)" fill="#fff"/>
    <path id="Path_35" data-name="Path 35" d="M275.8,4.783a6.146,6.146,0,0,1,.134.92l1.319-1.319a5.136,5.136,0,0,0,.041-.647A5.032,5.032,0,0,0,275.81.155a.527.527,0,0,0-.746,0,5.066,5.066,0,0,0-1.049,1.523,1.582,1.582,0,0,1,.144.127,6.1,6.1,0,0,1,1.64,2.977Zm0,0" transform="translate(-264.381)" fill="#fff"/>
    <path id="Path_36" data-name="Path 36" d="M355.431,146.21a5.032,5.032,0,0,0-3.581-1.483,5.111,5.111,0,0,0-.647.041l-1.316,1.316a6.074,6.074,0,0,1,3.894,1.777,1.618,1.618,0,0,1,.127.144,5.06,5.06,0,0,0,1.516-1.042.527.527,0,0,0,.007-.753Zm0,0" transform="translate(-337.585 -139.638)" fill="#fff"/>
    <path id="Path_37" data-name="Path 37" d="M207.833,73.863l1.312-1.312a5.058,5.058,0,0,0-1.438-4.233.527.527,0,0,0-.746,0,5.038,5.038,0,0,0-1.047,1.525,1.571,1.571,0,0,1,.142.126,6.073,6.073,0,0,1,1.777,3.894Zm0,0" transform="translate(-198.674 -65.767)" fill="#fff"/>
    <path id="Path_38" data-name="Path 38" d="M283.678,212.891a5.116,5.116,0,0,0-.648.041l-1.316,1.316a6.075,6.075,0,0,1,3.894,1.777,1.605,1.605,0,0,1,.128.145,5.066,5.066,0,0,0,1.523-1.049.527.527,0,0,0,0-.746,5.031,5.031,0,0,0-3.581-1.484Zm0,0" transform="translate(-271.81 -205.406)" fill="#fff"/>
    <path id="Path_39" data-name="Path 39" d="M129.117,140.068a5.031,5.031,0,0,0-1.484-3.581.527.527,0,0,0-.746,0,5.072,5.072,0,0,0-.354,6.77l2.542-2.542A5.132,5.132,0,0,0,129.117,140.068Zm0,0" transform="translate(-120.997 -131.539)" fill="#fff"/>
    <path id="Path_40" data-name="Path 40" d="M181.869,281.055a5.146,5.146,0,0,0-.648.041l-2.542,2.542a5.027,5.027,0,0,0,3.189,1.13h0a5.031,5.031,0,0,0,3.581-1.483.527.527,0,0,0,0-.746,5.031,5.031,0,0,0-3.581-1.484Zm0,0" transform="translate(-172.397 -271.173)" fill="#fff"/>
  </g>
</svg>
